<svg width="316" height="37" viewBox="0 0 316 37" fill="none" xmlns="http://www.w3.org/2000/svg">
<path d="M7.14532 4.14551H0V35.9629H7.14532V4.14551Z" fill="white"/>
<path d="M38.5409 7.64112C36.3917 5.28908 32.4824 4.14551 26.4239 4.14551H9.43246V10.1554H25.5642C32.4419 10.1554 33.8206 11.9153 33.8206 20.7395C33.8206 25.6545 33.0582 28.0876 31.1928 29.0852C29.9033 29.807 28.1433 30.1396 25.5642 30.1396H9.43246V35.9548H27.1863C32.5311 35.9548 35.9131 35.095 37.9164 33.2377C40.3496 30.9993 41.2579 27.5118 41.2579 20.407C41.2579 13.3022 40.4955 9.81472 38.5409 7.64112Z" fill="white"/>
<path d="M53.9428 4.14551H46.9354V35.9629H53.9428V4.14551Z" fill="white"/>
<path d="M80.8454 19.3607C83.8544 18.6876 85.0953 16.733 85.0953 12.6291C85.0953 6.33533 82.3296 4.14551 74.357 4.14551H56.2301V9.67685H72.1834C74.3246 9.67685 75.4763 9.86339 76.19 10.2932C77.1876 10.8204 77.7148 11.964 77.7148 13.5861C77.7148 15.0622 77.2362 16.1166 76.336 16.6356C75.4357 17.1547 74.4219 17.2115 71.4697 17.2115H56.2301V22.1751H72.5971C75.2167 22.1751 76.6036 22.3616 77.366 22.7915C78.323 23.3673 78.8421 24.6082 78.8421 26.2709C78.8421 29.4664 77.512 30.4234 73.0756 30.4234H56.2301V35.9548H75.7439C83.3272 35.9548 86.2875 33.3837 86.2875 26.798C86.2875 22.0291 84.7141 19.8798 80.8454 19.3607Z" fill="white"/>
<path d="M123.661 30.2136C122.16 30.3839 119.889 30.4244 115.939 30.4244C101.097 30.4244 100.757 30.1811 100.757 20.4648C100.757 9.72654 100.805 9.67787 115.169 9.67787C116.28 9.67787 116.426 9.67787 118.94 9.7752C124.058 9.96985 125.226 10.1158 126.718 10.8377C128.211 11.5595 128.803 13.9359 128.803 19.3455C128.839 20.9944 128.774 22.6439 128.608 24.2848L117.87 17.3179L115.039 22.0139L133.182 33.5956L133.547 33.8471L136.694 35.8585L139.371 30.7894L135.696 28.5671C136.134 26.5395 136.232 24.8931 136.232 20.1566C136.232 15.558 136.086 12.6625 135.696 11.0648C135.137 8.45319 133.977 6.68511 132.201 5.66319C129.281 4.02488 125.129 3.58691 113.182 3.58691C106.272 3.58691 102.687 3.83023 100.205 4.45473C96.6284 5.37933 94.6981 7.30962 93.8303 10.8377C93.3437 12.7761 93.1977 14.8037 93.1977 20.3675C93.1977 25.2337 93.3437 27.2776 93.7816 29.289C94.5927 32.6224 96.2148 34.4148 99.3373 35.5259C101.462 36.2478 105.526 36.5397 114.471 36.5397C124.772 36.5397 128.616 36.3045 131.155 35.0231L123.661 30.2136Z" fill="white"/>
<path d="M145.526 3.96191H170.515C177.595 3.96191 181.155 5.25959 183.086 8.63354C184.529 10.9937 185.203 14.7975 185.203 19.9882C185.203 25.1789 184.529 29.0395 183.086 31.3996C181.155 34.7736 177.595 36.0712 170.515 36.0712H145.526V3.96191ZM170.807 32.8514C175.332 32.8514 178.268 31.7889 179.566 29.7208C180.677 27.8959 181.188 24.9112 181.188 20.191C181.188 15.2274 180.612 11.8561 179.46 10.0772C178.155 8.10636 175.405 7.18988 170.539 7.18988H149.379V32.8514H170.807Z" fill="white"/>
<path d="M230.994 6.56345C233.062 8.72895 233.581 11.227 233.581 19.9944C233.581 28.7618 233.095 31.349 231.027 33.474C228.594 36.0288 226.112 36.41 212.924 36.41C199.737 36.41 197.271 36.0288 194.822 33.474C192.745 31.3085 192.267 28.8024 192.267 20.043C192.267 11.2837 192.745 8.6884 194.822 6.56345C197.238 4.00866 199.696 3.58691 213.078 3.58691C226.031 3.58691 228.537 4.05732 230.994 6.56345ZM197.895 8.96415C196.565 10.3673 196.273 12.6787 196.273 20.043C196.273 27.4074 196.606 29.6702 197.952 31.0652C199.574 32.8008 201.618 33.0441 212.932 33.0441C224.246 33.0441 226.225 32.7846 227.904 31.0652C229.25 29.6702 229.591 27.3587 229.591 20.043C229.591 12.7274 229.21 10.3673 227.904 8.96415C226.412 7.34206 223.719 6.99331 213.119 6.99331C202.007 6.99331 199.453 7.33395 197.895 8.96415Z" fill="white"/>
<path d="M279 25.2895V26.6358C279 30.4883 278.611 32.1753 277.378 33.6189C276.145 35.0626 274.588 35.7358 271.652 36.0521C269.819 36.1981 264.353 36.3846 259.997 36.3846C248.391 36.3846 245.553 35.9061 243.192 33.4486C241.124 31.3318 240.638 28.777 240.638 20.0177C240.638 10.0013 241.319 7.44648 244.587 5.41886C247.021 3.87788 249.689 3.63456 262.933 3.63456C270.963 3.5859 273.753 4.00764 275.756 5.45131C277.921 6.94363 278.603 8.96314 278.741 14.0727H274.945V13.2617C274.945 7.58436 273.599 7.00041 260.119 7.00041C244.709 7.00041 244.612 7.04907 244.612 20.0501C244.612 27.3496 244.952 29.6773 246.299 31.0723C247.84 32.6944 250.297 33.0512 259.275 33.0512C273.72 33.0512 275.212 32.524 275.212 27.1306V25.2895H279Z" fill="white"/>
<path d="M290.288 4.65902V5.77502H288.068V12.999H286.7V5.77502H284.468V4.65902H290.288ZM300.457 4.65902V12.999H299.089V7.28702L296.545 12.999H295.597L293.041 7.28702V12.999H291.673V4.65902H293.149L296.077 11.199L298.993 4.65902H300.457Z" fill="white"/>
</svg>
