<svg width="53" height="53" viewBox="0 0 53 53" fill="none" xmlns="http://www.w3.org/2000/svg">
<circle cx="26.5" cy="26.5" r="26.5" fill="white"/>
<path d="M26.5 27.8125C29.7607 27.8125 32.4062 25.167 32.4062 21.9062C32.4062 18.6455 29.7607 16 26.5 16C23.2393 16 20.5938 18.6455 20.5938 21.9062C20.5938 25.167 23.2393 27.8125 26.5 27.8125ZM31.75 29.125H29.49C28.5795 29.5434 27.5664 29.7812 26.5 29.7812C25.4336 29.7812 24.4246 29.5434 23.51 29.125H21.25C18.3502 29.125 16 31.4752 16 34.375V35.0312C16 36.1182 16.8818 37 17.9688 37H35.0312C36.1182 37 37 36.1182 37 35.0312V34.375C37 31.4752 34.6498 29.125 31.75 29.125Z" fill="#3C6CA4"/>
</svg>
